HIERARCHY
ROOT Hips
{
  OFFSET 52.3993 93.0106 119.052
  CHANNELS 6 Xposition Yposition Zposition Zrotation Xrotation Yrotation
  JOINT ToSpine
  {
    OFFSET -2.69724 7.43032 -0.144315
    CHANNELS 3 Zrotation Xrotation Yrotation
    JOINT Spine
    {
      OFFSET -0.0310711 10.7595 1.96963
      CHANNELS 3 Zrotation Xrotation Yrotation
      JOINT Spine1
      {
        OFFSET 13.1342 3.43533 0.764692
        CHANNELS 3 Zrotation Xrotation Yrotation
        JOINT Neck
        {
          OFFSET 29.8703 7.82586 -0.130764
          CHANNELS 3 Zrotation Xrotation Yrotation
          JOINT Head
          {
            OFFSET 9.52751 0.295786 -0.907742
            CHANNELS 3 Zrotation Xrotation Yrotation
            End Site
            {
              OFFSET 16.4037 0.713936 2.7358
            }
          }
        }
        JOINT LeftShoulder
        {
          OFFSET 27.5574 4.95586 2.47156
          CHANNELS 3 Zrotation Xrotation Yrotation
          JOINT LeftArm
          {
            OFFSET 1.20734 -0.998971 20.1238
            CHANNELS 3 Zrotation Xrotation Yrotation
            JOINT LeftForeArm
            {
              OFFSET 26.8049 -0.0536703 -0.155908
              CHANNELS 3 Zrotation Xrotation Yrotation
              JOINT LeftHand
              {
                OFFSET 26.6817 0 0.320147
                CHANNELS 3 Zrotation Xrotation Yrotation
                End Site
                {
                  OFFSET 18.6119 0 0.382219
                }
              }
            }
          }
        }
        JOINT RightShoulder
        {
          OFFSET 27.5927 4.71444 -2.65209
          CHANNELS 3 Zrotation Xrotation Yrotation
          JOINT RightArm
          {
            OFFSET 2.83739 -1.17114 -18.7564
            CHANNELS 3 Zrotation Xrotation Yrotation
            JOINT RightForeArm
            {
              OFFSET 28.839 -0.0548439 1.22491
              CHANNELS 3 Zrotation Xrotation Yrotation
              JOINT RightHand
              {
                OFFSET 26.5114 0 -0.101894
                CHANNELS 3 Zrotation Xrotation Yrotation
                End Site
                {
                  OFFSET 18.2168 0 0
                }
              }
            }
          }
        }
      }
    }
  }
  JOINT LeftUpLeg
  {
    OFFSET -4.76168 -1.9167 -10.2353
    CHANNELS 3 Zrotation Xrotation Yrotation
    JOINT LeftLeg
    {
      OFFSET 2.55951 -42.0585 -8.02213
      CHANNELS 3 Zrotation Xrotation Yrotation
      JOINT LeftFoot
      {
        OFFSET 3.16357 -42.5282 -3.95426
        CHANNELS 3 Zrotation Xrotation Yrotation
        JOINT LeftToeBase
        {
          OFFSET 0.346054 -6.02161 12.8035
          CHANNELS 3 Zrotation Xrotation Yrotation
          End Site
          {
            OFFSET 0.134235 -1.35082 5.13018
          }
        }
      }
    }
  }
  JOINT RightUpLeg
  {
    OFFSET -4.94151 -1.41743 10.6446
    CHANNELS 3 Zrotation Xrotation Yrotation
    JOINT RightLeg
    {
      OFFSET -2.56294 -42.0364 -7.94377
      CHANNELS 3 Zrotation Xrotation Yrotation
      JOINT RightFoot
      {
        OFFSET -3.0952 -42.555 -4.02241
        CHANNELS 3 Zrotation Xrotation Yrotation
        JOINT RightToeBase
        {
          OFFSET -0.0828122 -6.13587 12.8035
          CHANNELS 3 Zrotation Xrotation Yrotation
          End Site
          {
            OFFSET -0.131328 -1.35082 5.13018
          }
        }
      }
    }
  }
}
MOTION
Frames:	11
Frame Time:	0.0333333
49.6003 94.2037 109.392 -66.5727 -39.8972 -163.984 -70.1915 0 88.8779 75.0061 70.1236 14.0426 6.00416 20.6554 -0.727895 -132.665 12.5953 -169.634 -147.568 47.4542 -175.472 0.691426 -12.2912 -27.0612 -138.461 32.5093 -67.978 15.0547 -6.37253 -111.55 0.420957 0.000575605 0.35866 -0.610736 7.16219 22.5324 -46.9514 -37.9964 153.812 15.0729 5.2463 108.422 0.58676 0.000331645 0.0646651 -43.4007 15.2714 99.9962 -0.857823 30.4581 4.22711 0.660119 1.45057 -0.0702135 1.65679 -3.74338 0.354046 -51.5744 -3.75152 90.2224 -1.27874 34.1736 4.86928 1.75419 -17.6701 1.58838 -1.39997 -0.270331 8.70257 
49.5865 94.205 109.348 -66.4372 -39.737 -163.964 -70.1915 0 88.8779 74.5077 70.1607 14.6699 6.00587 20.7403 -0.743573 -132.535 12.6124 -169.419 -147.594 47.4297 -175.301 0.658392 -12.464 -27.2438 -134.92 30.1658 -68.46 14.7576 -6.32781 -111.824 0.420957 0.000575605 0.35866 -0.599699 7.14753 22.3945 -47.0283 -38.202 153.957 13.0184 4.57045 108.664 0.58676 0.000331645 0.0646651 -43.2154 15.2593 99.9297 -0.881477 30.5035 4.10764 0.297042 1.66709 -0.00857945 1.57609 -4.02408 1.77285 -51.4497 -3.71531 90.332 -1.18707 34.0396 4.94252 0.692241 -17.4469 1.54582 -1.15191 -1.10554 8.11708 
49.4874 94.2484 109.286 -66.5428 -39.5174 -164.258 -70.1915 0 88.8779 73.6922 70.2388 15.5539 6.53327 20.9133 -1.0614 -133.229 12.6226 -169.218 -148.229 47.5888 -174.943 0.672848 -12.4208 -26.8974 -135.372 31.0163 -68.4013 18.8202 -7.86634 -111.041 0.420957 0.000575605 0.35866 -0.582608 7.05136 22.298 -47.5583 -38.5509 154.031 14.0233 4.72252 107.931 0.58676 0.000331645 0.0646651 -43.202 15.3785 100.356 -0.996074 30.733 3.48067 -2.46909 0.369055 0.268022 0.227369 -2.28352 4.62026 -51.6076 -3.83548 90.1697 -1.04604 33.523 5.26551 -3.1327 -16.3745 1.39011 -0.347833 -4.71796 7.4094 
49.3945 94.2512 109.271 -66.8551 -39.5015 -164.339 -70.1915 0 88.8779 73.5485 70.2551 15.8193 6.90587 20.9366 -1.0966 -133.206 12.7223 -169.252 -148.085 47.7002 -174.857 0.624499 -12.6774 -27.1326 -135.507 30.4611 -68.5935 18.0407 -7.5462 -111.116 0.420957 0.000575605 0.35866 -0.575885 7.09447 22.1289 -47.4858 -38.7435 153.989 13.9157 4.73975 108.121 0.58676 0.000331645 0.0646651 -43.4411 15.5919 100.291 -1.00649 30.8556 3.24494 -2.48708 0.307224 0.261429 0.0918342 -2.2187 5.20488 -51.9217 -3.48727 90.1651 -1.01954 33.6294 7.51243 -5.00085 -15.6592 1.33718 0.64755 -6.47406 1.1059 
49.3147 94.2601 109.324 -66.8182 -39.576 -164.149 -70.1915 0 88.8779 72.6013 70.0553 16.9856 7.41064 20.8709 -1.31939 -133.189 12.7506 -169.47 -147.717 47.7387 -174.975 0.630208 -12.6577 -27.0299 -135.278 30.4582 -68.8685 17.9472 -7.4271 -110.915 0.420957 0.000575605 0.35866 -0.589265 7.17905 22.1908 -47.8428 -38.5998 153.744 13.7044 4.64561 108.05 0.58676 0.000331645 0.0646651 -43.4011 15.8425 100.509 -1.03307 30.9143 3.02313 -2.16099 0.445967 0.232284 0.378877 -2.61579 4.71361 -52.0486 -3.25902 89.988 -1.03271 33.7534 9.64784 -5.41089 -15.5546 1.33155 1.25626 -6.47034 -4.57575 
49.2515 94.2112 109.398 -66.7731 -39.7091 -164.06 -70.1915 0 88.8779 71.7423 69.9066 17.7249 7.67896 20.7788 -1.23809 -133.145 12.7992 -169.66 -147.535 47.8206 -174.947 0.626567 -12.6814 -27.0146 -135.195 30.4879 -69.1782 18.0889 -7.43861 -110.782 0.420957 0.000575605 0.35866 -0.590689 7.14365 22.2681 -48.0142 -38.2138 153.473 13.3203 4.53476 108.136 0.58676 0.000331645 0.0646651 -43.1083 15.9537 100.67 -0.950974 31.4618 3.5933 -1.35536 0.170224 0.0995989 0.454036 -1.996 2.56333 -52.084 -3.20586 90.0449 -0.972184 34.0365 10.4232 -5.52585 -15.762 1.33868 1.55047 -6.31692 -7.31351 
49.2554 94.1059 109.509 -66.9572 -39.7011 -164.149 -70.1915 0 88.8779 72.2647 70.0176 17.0281 7.41896 20.7726 -0.891661 -132.949 12.7812 -169.763 -147.203 47.7563 -175.09 0.616733 -12.7366 -27.0376 -135.193 30.2125 -69.2965 18.3641 -7.51378 -110.664 0.420957 0.000575605 0.35866 -0.588124 7.00041 22.4644 -48.0244 -38.0106 153.241 13.3118 4.58232 108.324 0.58676 0.000331645 0.0646651 -43.0069 16.0472 100.606 -0.996056 32.126 3.07786 -1.79954 -0.112996 0.131904 0.473858 -2.50535 3.87873 -52.0891 -3.22411 90.1834 -0.769213 34.4968 11.1603 -7.0265 -15.266 1.3142 1.83405 -8.11679 -9.36067 
49.337 93.9537 109.714 -66.9609 -39.6812 -164.007 -70.1915 0 88.8779 73.6055 70.1075 15.7517 6.82506 20.6854 -0.445284 -133.042 12.9573 -169.174 -147.669 47.9704 -174.242 0.628774 -12.6158 -27.4052 -135.143 29.6743 -69.9288 18.9907 -7.61957 -110.243 0.420957 0.000575605 0.35866 -0.552465 6.72705 22.3815 -47.8012 -37.611 153.396 13.3614 4.64954 108.501 0.58676 0.000331645 0.0646651 -42.1912 16.4997 100.759 -1.12222 33.8477 2.43718 -1.8597 -0.556293 0.0964169 0.824369 -3.06471 3.46739 -51.9019 -3.33908 90.1537 -0.6538 35.0517 11.8961 -6.42353 -15.6374 1.32778 1.91732 -7.89411 -10.3035 
49.5106 93.6428 109.963 -67.1295 -39.4699 -163.997 -70.1915 0 88.8779 75.0191 70.1024 14.6707 6.54417 20.6347 -0.503441 -133.267 12.8629 -169.096 -147.775 47.8924 -174.261 0.667031 -12.4396 -27.0648 -135.343 29.1901 -70.4748 19.8084 -7.51692 -109.151 0.420957 0.000575605 0.35866 -0.557848 6.84092 22.2749 -47.5978 -37.3867 153.607 12.5453 4.51458 109.099 0.58676 0.000331645 0.0646651 -40.7507 16.9951 99.6203 -1.49746 37.1152 0.925483 -3.67706 -0.663512 0.314984 1.83158 -5.08653 3.51012 -51.4615 -3.34535 90.8514 -0.284947 36.0931 11.1258 -5.37964 -16.6823 1.3676 1.79522 -7.16912 -9.33617 
49.8246 93.2384 110.328 -67.5292 -39.1511 -164.185 -70.1915 0 88.8779 77.6276 70.1171 12.2211 5.86871 20.516 -0.43631 -133.212 12.7752 -169.24 -147.813 47.8654 -174.028 0.736996 -12.0978 -26.2807 -135.861 28.2286 -70.8812 18.9453 -6.66199 -107.871 0.420957 0.000575605 0.35866 -0.588699 7.02041 22.4471 -47.9595 -37.4183 153.45 12.6629 4.56572 109.133 0.58676 0.000331645 0.0646651 -39.0028 17.5668 97.3993 -2.28904 41.6952 -2.66995 -5.79807 -0.629211 0.575617 3.44528 -8.53001 4.77823 -50.9602 -3.46756 91.6035 0.161175 37.4303 10.3998 -5.45997 -17.2756 1.38565 1.77797 -7.58367 -8.9687 
50.1326 92.9293 110.764 -67.8957 -38.5752 -164.564 -70.1915 0 88.8779 80.6928 70.6351 8.09722 4.13725 20.4748 1.36868 -133.087 13.0762 -169.211 -147.914 48.1644 -173.954 0.724402 -12.1794 -26.2724 -136.58 26.4951 -71.8287 20.2252 -6.15963 -105.451 0.420957 0.000575605 0.35866 -0.498199 6.50565 21.8986 -47.4999 -37.1504 153.458 11.9652 4.45264 109.729 0.58676 0.000331645 0.0646651 -37.3446 17.9868 94.9832 -3.3517 46.1675 -7.85576 -6.50146 -2.04323 0.476235 2.85981 -8.12295 7.83042 -50.4828 -3.6518 92.6681 0.84632 38.4691 9.96312 -5.83772 -17.5186 1.38417 1.87583 -8.27664 -9.71514 
